# xmcd
#
# Track frame offsets:
# 150
# 12371
# 28399
# 45588
# 67880
# 89146
# 105876
# 119069
#
# Disc length: 1903 seconds
#
#
# Revision: 0
# Processed by: cddbd v1.5.1PL0 Copyright (c) Steve Scherf et al.
# Submitted via: FreeRIP 2.90 
#
DISCID=68076d08
DTITLE=Lorrie Matheson - The Good Intentions EP
DYEAR=1900
DGENRE=Roots
TTITLE0=Gun Metal Grey
TTITLE1=Wishing Well
TTITLE2=Falling Down Sober
TTITLE3=The Pages of Your Book (For Ralph)
TTITLE4=Is It Too Late?
TTITLE5=No Reasonable Offer Refused
TTITLE6=A Hollow Wind
TTITLE7=On Any Other Night
EXTD=
EXTT0=
EXTT1=
EXTT2=
EXTT3=
EXTT4=
EXTT5=
EXTT6=
EXTT7=
PLAYORDER=
